<svg width="69" height="36" viewBox="0 0 69 36" fill="none" xmlns="http://www.w3.org/2000/svg">
<g clip-path="url(#clip0_455_6275)">
<path fill-rule="evenodd" clip-rule="evenodd" d="M56.9021 2.10598C59.2123 2.10598 61.08 3.99666 61.08 6.32441C61.08 8.65217 59.2075 10.5429 56.9021 10.5429C54.5967 10.5429 52.7242 8.65217 52.7242 6.32441C52.7242 3.99666 54.5967 2.10598 56.9021 2.10598Z" fill="#6AB42D"/>
<path d="M31.6158 6.5012V11.2598C31.6158 11.6625 31.9417 11.9965 32.3454 11.9965H35.2636C37.2869 11.9965 39.1108 10.9848 39.0475 8.45081C39.0281 7.69454 38.7898 7.06104 38.2791 6.5454C37.7684 6.02485 37.034 5.76457 36.0807 5.76457H32.3454C31.9466 5.76457 31.6158 6.0936 31.6158 6.5012ZM26.4749 0.95192H36.9027C38.5806 0.95192 40.0251 1.31532 41.2459 2.03231C42.4667 2.75912 43.3908 3.71183 44.0182 4.88552C44.6456 6.06413 44.952 7.31149 44.952 8.62761C44.952 9.94372 44.6359 11.2353 44.0085 12.4237C43.3811 13.6121 42.4424 14.5796 41.1827 15.3309C39.923 16.0774 38.4104 16.4752 36.6546 16.5194C36.6497 16.5194 36.6449 16.5194 36.6352 16.5194H32.3357C31.9369 16.5194 31.6061 16.8484 31.6061 17.256V24.8433C31.6061 25.246 31.2803 25.5799 30.8766 25.5799H26.4604C26.0615 25.5799 25.7308 25.2509 25.7308 24.8433V1.68855C25.7308 1.28586 26.0567 0.95192 26.4604 0.95192" fill="#2A2B66"/>
<path fill-rule="evenodd" clip-rule="evenodd" d="M53.692 10.4053C52.5053 9.45263 51.7417 7.97937 51.7417 6.32441C51.7417 5.41099 51.9752 4.55159 52.3837 3.80513C52.5734 3.45646 52.5685 3.06359 52.374 2.71983C51.9898 2.05686 51.5861 1.51667 51.2067 1.15327C51.0657 1.02067 50.9003 0.95192 50.7106 0.95192H46.0999C45.808 0.95192 45.56 1.11398 45.4384 1.37916C45.3168 1.64435 45.3557 1.939 45.5454 2.1649C45.9685 2.66581 46.3382 3.21092 46.6495 3.79531C47.4665 5.3275 47.8702 6.95791 47.8702 8.6718C47.8702 10.3857 47.4568 12.0701 46.6446 13.617C45.8275 15.164 44.6018 16.4261 42.9628 17.4082C42.277 17.8158 41.5329 18.1449 40.7304 18.3904C40.4191 18.4886 40.2148 18.7636 40.2148 19.0927V24.8286C40.2148 25.0348 40.2926 25.2165 40.4385 25.3589C40.5893 25.5013 40.7644 25.5701 40.9735 25.5652C52.8263 25.0594 67.6556 13.6662 68.356 1.73275C68.3706 1.52158 68.3025 1.33988 68.1566 1.18764C68.0155 1.0354 67.8356 0.956831 67.6265 0.956831H62.8357C62.4661 0.956831 62.1597 1.23184 62.1159 1.60015C62.0235 2.31714 61.8825 3.02922 61.6976 3.72656C61.6296 3.98684 61.6393 4.22747 61.7366 4.47792C61.9506 5.05249 62.0721 5.67617 62.0721 6.32932C62.0721 9.04994 60.01 11.2795 57.3836 11.5201C57.1307 11.5447 56.9167 11.6331 56.7221 11.7951C56.6492 11.859 56.5713 11.9179 56.4984 11.9768C56.0509 12.3304 55.584 12.6496 55.1025 12.9295C54.8447 13.0769 54.548 13.0572 54.3097 12.8853C53.5121 12.2911 54.7523 11.2598 53.6969 10.4102" fill="#2A2B66"/>
<path fill-rule="evenodd" clip-rule="evenodd" d="M10.5708 14.2014H17.3556C17.7301 14.2014 18.0316 13.8724 18.0316 13.4648V9.69818C18.0316 9.47719 17.9538 9.29058 17.803 9.14816C17.6523 9.00574 17.4723 8.9419 17.268 8.97137C15.556 9.212 12.7059 10.4103 10.2352 13.3862C10.1136 13.5336 10.0844 13.7349 10.1573 13.9117C10.2303 14.0934 10.3859 14.2014 10.5708 14.2014ZM17.3556 18.7293H8.04651C7.5115 18.7293 7.05918 19.0779 6.87923 19.623C6.36368 21.1798 5.95999 22.9477 5.71195 24.9464C5.66817 25.3147 5.38122 25.5848 5.04076 25.5848H1.06228C0.872595 25.5848 0.70723 25.5063 0.571047 25.3589C0.439728 25.2067 0.376501 25.025 0.386228 24.8187C0.882322 12.8804 11.4122 1.51667 22.3214 0.976477C22.5111 0.966656 22.6813 1.03541 22.8175 1.17782C22.9585 1.32024 23.0266 1.50194 23.0266 1.7082V24.8482C23.0266 25.2509 22.7251 25.5848 22.3506 25.5848H18.7028C18.3283 25.5848 18.0268 25.2558 18.0268 24.8482V19.4659C18.0268 19.0632 17.7203 18.7293 17.3507 18.7293" fill="#2A2B66"/>
<path d="M65.7929 34.0266V30.4073H66.3376V31.8511C66.4057 31.7283 66.5127 31.6252 66.6683 31.5515C66.8191 31.473 66.9747 31.4337 67.1255 31.4337C67.2763 31.4337 67.4027 31.4582 67.5146 31.5073C67.6265 31.5564 67.7189 31.6154 67.787 31.689C67.8551 31.7627 67.9134 31.8511 67.9523 31.9542C67.9961 32.0574 68.0253 32.1605 68.0399 32.2587C68.0545 32.3618 68.0642 32.465 68.0642 32.573V34.0217H67.5195V32.5632C67.5195 32.3225 67.4806 32.1457 67.4027 32.0377C67.3249 31.9297 67.2033 31.8757 67.0428 31.8757C66.8629 31.8757 66.6975 31.9395 66.5565 32.0623C66.4106 32.185 66.3425 32.3324 66.3425 32.4944V34.0217H65.7977L65.7929 34.0266ZM65.2141 34.0266H64.9806C64.8007 34.0266 64.6548 34.0168 64.538 33.9922C64.4213 33.9677 64.3192 33.9235 64.2316 33.8596C64.1441 33.7958 64.076 33.7025 64.0371 33.5846C63.9982 33.4668 63.9787 33.3096 63.9787 33.123V31.8707H63.4826V31.5024H63.9933V30.8886L64.5234 30.7265V31.5024H65.2044V31.8707H64.5234V33.1525C64.5234 33.2556 64.5332 33.3342 64.5526 33.3931C64.5721 33.4471 64.6061 33.4962 64.6645 33.5257C64.7229 33.5601 64.7909 33.5797 64.8688 33.5895C64.9466 33.5994 65.0633 33.5994 65.2189 33.5994V34.0217L65.2141 34.0266ZM61.7949 34.0855C61.4788 34.0855 61.2405 33.9971 61.0751 33.8154C60.9097 33.6337 60.8271 33.3931 60.8271 33.0886V31.5024H61.3669V33.0837C61.3669 33.2703 61.4156 33.4078 61.5031 33.5011C61.5955 33.5945 61.7268 33.6387 61.8922 33.6387C62.0868 33.6387 62.2375 33.5846 62.3348 33.4815C62.4369 33.3784 62.4856 33.2212 62.4856 33.015V31.5073H63.0303V33.3735C63.0303 33.5846 63.04 33.8056 63.0546 34.0315H62.4953L62.4856 33.6485C62.4661 33.6927 62.4369 33.7418 62.4029 33.786C62.3688 33.8302 62.3251 33.8793 62.2667 33.9284C62.2132 33.9775 62.1402 34.0168 62.0576 34.0463C61.9749 34.0757 61.8825 34.0905 61.7803 34.0905M58.9351 33.6337C59.1734 33.6337 59.3582 33.5503 59.4798 33.3882C59.6014 33.2261 59.6598 33.015 59.6598 32.7596C59.6598 32.5042 59.5965 32.2882 59.475 32.1261C59.3485 31.964 59.1685 31.8806 58.9351 31.8806C58.7016 31.8806 58.5168 31.964 58.3904 32.1261C58.2639 32.2882 58.2007 32.4993 58.2007 32.7596C58.2007 33.0199 58.2639 33.2261 58.3855 33.3882C58.5071 33.5503 58.6919 33.6337 58.9351 33.6337ZM58.94 34.0855C58.7308 34.0855 58.5411 34.0512 58.3709 33.9824C58.2007 33.9137 58.0645 33.8204 57.9575 33.6976C57.8505 33.5797 57.7678 33.4373 57.7143 33.2802C57.6559 33.123 57.6316 32.9511 57.6316 32.7645C57.6316 32.5092 57.6803 32.2882 57.7775 32.0868C57.8748 31.8904 58.0256 31.7332 58.225 31.6105C58.4244 31.4926 58.6627 31.4337 58.94 31.4337C59.1491 31.4337 59.3388 31.468 59.5041 31.5368C59.6695 31.6056 59.8057 31.6989 59.9078 31.8167C60.01 31.9395 60.0926 32.077 60.1461 32.2391C60.1996 32.4011 60.2288 32.573 60.2288 32.7694C60.2288 32.9511 60.1996 33.123 60.1461 33.2802C60.0878 33.4373 60.01 33.5748 59.903 33.6976C59.796 33.8204 59.6646 33.9137 59.4944 33.9824C59.329 34.0512 59.1394 34.0855 58.9351 34.0855M55.55 34.0266V32.6319L54.3049 30.4417H54.9372L55.8418 32.1261L56.7513 30.4417H57.3933L56.1142 32.6221V34.0266H55.5548H55.55ZM51.5423 34.0855C51.1338 34.0855 50.8079 33.9677 50.5696 33.7221C50.3313 33.4815 50.2097 33.1623 50.2097 32.7645C50.2097 32.519 50.2583 32.298 50.3556 32.0966C50.4577 31.8953 50.5988 31.7381 50.7933 31.6154C50.9879 31.4975 51.2116 31.4337 51.4645 31.4337C51.6493 31.4337 51.8195 31.4681 51.9606 31.5319C52.1016 31.5957 52.2184 31.689 52.3059 31.8118C52.3935 31.9297 52.4567 32.0672 52.5005 32.2243C52.5442 32.3815 52.5685 32.5484 52.5685 32.74C52.5685 32.7743 52.5685 32.8136 52.554 32.8529H50.7739C50.7836 33.1132 50.8614 33.3096 51.0073 33.4373C51.1532 33.5699 51.3429 33.6337 51.5764 33.6337C51.8633 33.6337 52.1211 33.5404 52.3594 33.3587L52.515 33.7614C52.233 33.9726 51.9071 34.0806 51.5326 34.0806M50.7933 32.4797H52.087C52.0676 32.2833 52.0044 32.131 51.8974 32.023C51.7904 31.9199 51.659 31.8658 51.4937 31.8658C51.3089 31.8658 51.1581 31.9198 51.0316 32.0279C50.91 32.1359 50.8274 32.2882 50.7933 32.4797ZM48.3615 34.0266L47.3061 31.5024H47.9091L48.6338 33.4324C48.7019 33.2409 48.77 33.0395 48.8478 32.8234C48.9257 32.6074 49.0132 32.3717 49.1056 32.1114C49.2029 31.8511 49.2758 31.6498 49.3293 31.5073H49.9178L48.8624 34.0315H48.3566L48.3615 34.0266ZM46.3722 31.5024H46.9072V34.0266H46.3722V31.5024ZM46.3722 30.4417H46.9024V30.9328H46.3722V30.4417ZM44.8694 34.0855C44.6505 34.0855 44.4559 34.0561 44.2808 33.9922C44.1058 33.9284 43.9647 33.8547 43.8674 33.7762L44.0085 33.3735C44.1058 33.4471 44.2322 33.5159 44.383 33.5699C44.5338 33.6239 44.6797 33.6534 44.8256 33.6534C45.1174 33.6534 45.2584 33.5453 45.2584 33.3293C45.2584 33.2458 45.2293 33.1819 45.166 33.1377C45.1077 33.0935 44.9764 33.0346 44.7818 32.9708L44.5484 32.8922C44.4365 32.8529 44.3489 32.8185 44.276 32.7842C44.2079 32.7498 44.1398 32.7056 44.0717 32.6516C44.0036 32.5975 43.955 32.5288 43.9258 32.4502C43.8918 32.3716 43.8772 32.2783 43.8772 32.1703C43.8772 32.0475 43.9015 31.9346 43.955 31.8413C44.0036 31.748 44.0766 31.6743 44.1641 31.6154C44.2517 31.5614 44.3489 31.5172 44.4559 31.4926C44.5629 31.468 44.6748 31.4533 44.7964 31.4533C44.9666 31.4533 45.1271 31.473 45.2779 31.5172C45.4287 31.5614 45.56 31.6154 45.667 31.689L45.5211 32.0721C45.4335 32.0279 45.3265 31.9837 45.2049 31.9444C45.0785 31.9051 44.9618 31.8855 44.8499 31.8855C44.5629 31.8855 44.417 31.9739 44.417 32.1458C44.417 32.2243 44.4414 32.2833 44.4949 32.3225C44.5484 32.3618 44.6602 32.4109 44.8304 32.4748C44.8353 32.4748 44.8791 32.4895 44.952 32.5141C45.025 32.5386 45.0688 32.5534 45.0785 32.5583C45.1709 32.5926 45.2487 32.6221 45.312 32.6467C45.3703 32.6712 45.4335 32.7105 45.4968 32.7498C45.56 32.794 45.6086 32.8382 45.6475 32.8873C45.6816 32.9364 45.7156 32.9953 45.7351 33.069C45.7594 33.1427 45.7691 33.2261 45.7691 33.3194C45.7691 33.457 45.7448 33.5797 45.6913 33.6779C45.6378 33.7811 45.5649 33.8596 45.4773 33.9186C45.3898 33.9726 45.2925 34.0168 45.1904 34.0463C45.0882 34.0708 44.9812 34.0855 44.8694 34.0855ZM42.4618 34.0855C42.243 34.0855 42.0484 34.0561 41.8733 33.9922C41.6982 33.9284 41.5572 33.8547 41.4599 33.7762L41.601 33.3735C41.6982 33.4471 41.8247 33.5159 41.9755 33.5699C42.1262 33.6239 42.2722 33.6534 42.4181 33.6534C42.7099 33.6534 42.8509 33.5453 42.8509 33.3293C42.8509 33.2458 42.8218 33.1819 42.7585 33.1377C42.7002 33.0935 42.5688 33.0346 42.3743 32.9708L42.1408 32.8922C42.029 32.8529 41.9414 32.8185 41.8685 32.7842C41.8004 32.7498 41.7323 32.7056 41.6642 32.6516C41.5961 32.5975 41.5475 32.5288 41.5183 32.4502C41.4842 32.3716 41.4697 32.2783 41.4697 32.1703C41.4697 32.0475 41.494 31.9346 41.5475 31.8413C41.5961 31.748 41.6691 31.6743 41.7566 31.6154C41.8442 31.5614 41.9414 31.5172 42.0484 31.4926C42.1554 31.468 42.2673 31.4533 42.3889 31.4533C42.5591 31.4533 42.7196 31.473 42.8704 31.5172C43.0212 31.5614 43.1525 31.6154 43.2595 31.689L43.1136 32.0721C43.026 32.0279 42.919 31.9837 42.7974 31.9444C42.671 31.9051 42.5542 31.8855 42.4424 31.8855C42.1554 31.8855 42.0095 31.9739 42.0095 32.1458C42.0095 32.2243 42.0338 32.2833 42.0873 32.3225C42.1408 32.3618 42.2527 32.4109 42.4229 32.4748C42.4278 32.4748 42.4716 32.4895 42.5445 32.5141C42.6175 32.5386 42.6613 32.5534 42.671 32.5583C42.7634 32.5926 42.8412 32.6221 42.9044 32.6467C42.9628 32.6712 43.026 32.7105 43.0893 32.7498C43.1525 32.794 43.2011 32.8382 43.24 32.8873C43.2741 32.9364 43.3081 32.9953 43.3276 33.069C43.3519 33.1427 43.3616 33.2261 43.3616 33.3194C43.3616 33.457 43.3373 33.5797 43.2838 33.6779C43.2303 33.7811 43.1622 33.8596 43.0698 33.9186C42.9823 33.9726 42.885 34.0168 42.7828 34.0463C42.6807 34.0708 42.5737 34.0855 42.4618 34.0855ZM39.8598 34.0855C39.4512 34.0855 39.1254 33.9677 38.887 33.7221C38.6487 33.4815 38.5271 33.1623 38.5271 32.7645C38.5271 32.519 38.5758 32.298 38.673 32.0966C38.7752 31.8953 38.9162 31.7381 39.1108 31.6154C39.3053 31.4975 39.529 31.4337 39.782 31.4337C39.9668 31.4337 40.137 31.4681 40.2781 31.5319C40.4191 31.5957 40.5358 31.689 40.6234 31.8118C40.7109 31.9297 40.7741 32.0672 40.8179 32.2243C40.8617 32.3815 40.886 32.5484 40.886 32.74C40.886 32.7743 40.886 32.8136 40.8714 32.8529H39.0913C39.101 33.1132 39.1789 33.3096 39.3248 33.4373C39.4707 33.5699 39.6604 33.6337 39.8938 33.6337C40.1759 33.6337 40.4386 33.5404 40.6769 33.3587L40.8325 33.7614C40.5504 33.9726 40.2245 34.0806 39.85 34.0806M39.1108 32.4797H40.4045C40.3851 32.2833 40.3218 32.131 40.2148 32.023C40.1078 31.9199 39.9765 31.8658 39.8111 31.8658C39.6263 31.8658 39.4755 31.9198 39.3491 32.0279C39.2275 32.1359 39.1448 32.2882 39.1108 32.4797ZM36.7373 34.0266V32.131C36.7373 32.0623 36.7373 31.9739 36.7276 31.8707C36.7227 31.7676 36.713 31.6792 36.7081 31.6056L36.6984 31.4975H37.2772V31.856C37.4571 31.5761 37.6711 31.4337 37.9143 31.4337C37.997 31.4337 38.0797 31.4484 38.1672 31.473V31.9591C38.0748 31.9248 37.9727 31.91 37.8754 31.91C37.7003 31.91 37.5544 31.969 37.4474 32.0917C37.3404 32.2096 37.282 32.3864 37.282 32.6074V34.0266H36.7324H36.7373ZM34.6751 35.0481C34.3395 35.0481 34.0282 34.9793 33.7267 34.8467L33.8142 34.3704C34.0817 34.5275 34.3541 34.6012 34.6411 34.6012C34.8842 34.6012 35.0788 34.5423 35.215 34.4195C35.3512 34.3016 35.4192 34.1199 35.4192 33.8842V33.6436C35.2587 33.8793 35.0302 33.9971 34.7237 33.9971C34.3687 33.9971 34.0769 33.8842 33.858 33.6632C33.6343 33.4422 33.5224 33.1377 33.5224 32.7596C33.5224 32.573 33.5467 32.4011 33.5954 32.244C33.644 32.0868 33.717 31.9444 33.8142 31.8265C33.9066 31.7087 34.0331 31.6105 34.1839 31.5417C34.3346 31.473 34.5049 31.4386 34.6994 31.4386C34.8697 31.4386 35.0156 31.473 35.1372 31.5417C35.2587 31.6105 35.356 31.7038 35.4241 31.8118V31.5024H35.998C35.9737 31.7578 35.9591 32.0181 35.9591 32.2833V33.6632C35.9591 33.8056 35.9494 33.9431 35.9251 34.0659C35.9007 34.1936 35.8618 34.3164 35.8035 34.4391C35.7451 34.5619 35.6673 34.665 35.5749 34.7534C35.4825 34.8369 35.356 34.9106 35.2052 34.9646C35.0545 35.0186 34.8794 35.0432 34.68 35.0432M34.7626 33.5748C34.8842 33.5748 34.9864 33.5503 35.0788 33.5061C35.1712 33.4619 35.2393 33.398 35.2928 33.3194C35.3463 33.2409 35.3803 33.1476 35.4047 33.0493C35.429 32.9511 35.4436 32.8431 35.4436 32.7252C35.4436 32.4699 35.3852 32.2685 35.2733 32.1114C35.1615 31.9542 34.9961 31.8806 34.787 31.8806C34.5778 31.8806 34.3979 31.964 34.2763 32.1261C34.1547 32.2882 34.0963 32.4993 34.0963 32.7498C34.0963 33.0002 34.1547 33.2114 34.2666 33.3587C34.3784 33.5011 34.5438 33.5748 34.7626 33.5748ZM31.7229 33.6337C31.9612 33.6337 32.146 33.5503 32.2676 33.3882C32.3892 33.2261 32.4475 33.015 32.4475 32.7596C32.4475 32.5042 32.3843 32.2882 32.2627 32.1261C32.1363 31.964 31.9563 31.8806 31.7229 31.8806C31.4894 31.8806 31.3046 31.964 31.1781 32.1261C31.0517 32.2882 30.9884 32.4993 30.9884 32.7596C30.9884 33.0199 31.0517 33.2261 31.1733 33.3882C31.2949 33.5503 31.4797 33.6337 31.7229 33.6337ZM31.7277 34.0855C31.5186 34.0855 31.3289 34.0512 31.1587 33.9824C30.9884 33.9137 30.8523 33.8204 30.7453 33.6976C30.6383 33.5797 30.5556 33.4373 30.5021 33.2802C30.4437 33.123 30.4194 32.9511 30.4194 32.7645C30.4194 32.5092 30.468 32.2882 30.5653 32.0868C30.6626 31.8904 30.8133 31.7332 31.0128 31.6105C31.2122 31.4926 31.4505 31.4337 31.7277 31.4337C31.9369 31.4337 32.1265 31.468 32.2919 31.5368C32.4573 31.6056 32.5935 31.6989 32.6956 31.8167C32.7977 31.9395 32.8804 32.077 32.9339 32.2391C32.9874 32.4011 33.0166 32.573 33.0166 32.7694C33.0166 32.9511 32.9874 33.123 32.9339 33.2802C32.8755 33.4373 32.7977 33.5748 32.6907 33.6976C32.5837 33.8204 32.4524 33.9137 32.2822 33.9824C32.1168 34.0512 31.9271 34.0855 31.7229 34.0855M28.6296 34.0266V32.131C28.6296 32.0623 28.6296 31.9739 28.6198 31.8707C28.615 31.7676 28.6052 31.6792 28.6004 31.6056L28.5907 31.4975H29.1694V31.856C29.3494 31.5761 29.5634 31.4337 29.8066 31.4337C29.8893 31.4337 29.9719 31.4484 30.0595 31.473V31.9591C29.9671 31.9248 29.8649 31.91 29.7677 31.91C29.5926 31.91 29.4467 31.969 29.3397 32.0917C29.2327 32.2096 29.1743 32.3864 29.1743 32.6074V34.0266H28.6247H28.6296ZM25.5654 34.0266V30.4417H26.5771C26.7084 30.4417 26.8251 30.4417 26.9224 30.4515C27.0197 30.4564 27.1267 30.4662 27.2337 30.4859C27.3407 30.5006 27.4331 30.5252 27.5109 30.5546C27.5887 30.5841 27.6617 30.6234 27.7346 30.6725C27.8076 30.7216 27.866 30.7805 27.9097 30.8542C27.9535 30.9229 27.9876 31.0064 28.0167 31.1096C28.0411 31.2078 28.0556 31.3207 28.0556 31.4484C28.0556 31.6006 28.0362 31.7332 27.9924 31.8462C27.9535 31.9591 27.8951 32.0574 27.8173 32.131C27.7444 32.2047 27.6471 32.2685 27.5352 32.3176C27.4234 32.3667 27.2969 32.4011 27.1656 32.4208C27.0294 32.4404 26.8786 32.4502 26.7084 32.4502H26.1248V34.0266H25.5654ZM26.1248 31.969H26.6987C26.796 31.969 26.8835 31.969 26.9613 31.9542C27.0343 31.9444 27.1072 31.9297 27.1753 31.91C27.2434 31.8855 27.2969 31.856 27.3358 31.8167C27.3796 31.7774 27.4088 31.7283 27.4331 31.6694C27.4574 31.6105 27.472 31.5368 27.472 31.4533C27.472 31.3698 27.4623 31.306 27.4477 31.2421C27.4282 31.1832 27.4039 31.1341 27.365 31.0948C27.3261 31.0555 27.2872 31.0261 27.2434 31.0015C27.1996 30.977 27.1413 30.9622 27.0635 30.9524C26.9905 30.9426 26.9176 30.9328 26.8543 30.9279C26.7862 30.9279 26.7035 30.9229 26.6014 30.9229H26.1296V31.964L26.1248 31.969ZM21.0325 34.0266V32.3618C21.0325 32.2096 21.0325 32.0623 21.0228 31.9198C21.0179 31.7774 21.0082 31.6743 21.0033 31.6056L20.9936 31.5024H21.5675V31.8609C21.6551 31.7283 21.7718 31.6203 21.9177 31.5515C22.0636 31.4779 22.2144 31.4435 22.3652 31.4435C22.6716 31.4435 22.905 31.5368 23.0607 31.7234C23.2163 31.91 23.2941 32.2096 23.2941 32.6172V34.0315H22.7494V32.5975C22.7494 32.3471 22.7153 32.1654 22.6424 32.0524C22.5694 31.9395 22.443 31.8855 22.2582 31.8855C22.1025 31.8855 21.9469 31.9444 21.801 32.0672C21.6551 32.1899 21.5821 32.3275 21.5821 32.4895V34.0315H21.0374L21.0325 34.0266ZM18.9606 34.0855C18.766 34.0855 18.5861 34.0512 18.4304 33.9775C18.2748 33.9038 18.1435 33.8056 18.0462 33.6829C17.9489 33.5601 17.876 33.4226 17.8225 33.2654C17.769 33.1132 17.7447 32.9511 17.7447 32.7842C17.7447 32.6074 17.769 32.4355 17.8273 32.2783C17.8808 32.1163 17.9587 31.9739 18.0608 31.8511C18.1629 31.7283 18.2894 31.6252 18.445 31.5515C18.6007 31.4779 18.7758 31.4386 18.9654 31.4386C19.1308 31.4386 19.2816 31.473 19.408 31.5466C19.5394 31.6203 19.6415 31.7136 19.7193 31.8364V31.5073H20.2543V34.0315H19.7096V33.6534C19.6366 33.786 19.5345 33.8891 19.4032 33.9677C19.2719 34.0463 19.1259 34.0855 18.9557 34.0855M19.0384 33.6337C19.2767 33.6337 19.4567 33.5552 19.5734 33.3931C19.6901 33.231 19.7485 33.0199 19.7485 32.7498C19.7485 32.4797 19.6853 32.2783 19.5685 32.1163C19.447 31.9591 19.267 31.8757 19.0335 31.8757C18.8001 31.8757 18.6104 31.9542 18.4839 32.1163C18.3624 32.2734 18.2991 32.4895 18.2991 32.7547C18.2991 33.0199 18.3624 33.2261 18.4839 33.3882C18.6055 33.5503 18.7952 33.6337 19.0384 33.6337ZM16.5968 31.5024H17.1318V34.0266H16.5968V31.5024ZM16.5968 30.4417H17.127V30.9328H16.5968V30.4417ZM13.6105 34.0266V32.3618C13.6105 32.2096 13.6105 32.0623 13.6008 31.9198C13.596 31.7774 13.5862 31.6743 13.5814 31.6056L13.5716 31.5024H14.1456V31.8609C14.2331 31.7283 14.3498 31.6203 14.4957 31.5515C14.6416 31.4779 14.7924 31.4435 14.9432 31.4435C15.2496 31.4435 15.4831 31.5368 15.6387 31.7234C15.7943 31.91 15.8722 32.2096 15.8722 32.6172V34.0315H15.3274V32.5975C15.3274 32.3471 15.2934 32.1654 15.2204 32.0524C15.1475 31.9395 15.021 31.8855 14.8362 31.8855C14.6806 31.8855 14.5249 31.9444 14.379 32.0672C14.2331 32.1899 14.1601 32.3275 14.1601 32.4895V34.0315H13.6154L13.6105 34.0266ZM11.8937 34.0855C11.4851 34.0855 11.1593 33.9677 10.9209 33.7221C10.6826 33.4815 10.561 33.1623 10.561 32.7645C10.561 32.519 10.6097 32.298 10.7069 32.0966C10.8091 31.8953 10.9501 31.7381 11.1447 31.6154C11.3392 31.4975 11.5629 31.4337 11.8159 31.4337C12.0007 31.4337 12.1709 31.4681 12.3119 31.5319C12.453 31.5957 12.5697 31.689 12.6573 31.8118C12.7448 31.9297 12.808 32.0672 12.8518 32.2243C12.8956 32.3815 12.9199 32.5484 12.9199 32.74C12.9199 32.7743 12.9199 32.8136 12.9053 32.8529H11.1252C11.1349 33.1132 11.2128 33.3096 11.3587 33.4373C11.5046 33.5699 11.6943 33.6337 11.9277 33.6337C12.2147 33.6337 12.4725 33.5404 12.7108 33.3587L12.8664 33.7614C12.5843 33.9726 12.2584 34.0806 11.8839 34.0806M11.1447 32.4797H12.4384C12.4189 32.2833 12.3557 32.131 12.2487 32.023C12.1417 31.9199 12.0104 31.8658 11.845 31.8658C11.6602 31.8658 11.5094 31.9198 11.383 32.0279C11.2614 32.1359 11.1787 32.2882 11.1447 32.4797ZM6.19345 34.0266V32.2685C6.19345 32.1605 6.19345 32.0574 6.18859 31.9591C6.18372 31.8609 6.17886 31.7676 6.16913 31.6841C6.16427 31.6006 6.15941 31.5368 6.15454 31.5024H6.72846V31.8609C6.79168 31.7332 6.88896 31.6301 7.02514 31.5564C7.16132 31.4779 7.30723 31.4386 7.46773 31.4386C7.62824 31.4386 7.77901 31.4828 7.91519 31.5663C8.04651 31.6498 8.14865 31.7725 8.21674 31.9346C8.31401 31.7823 8.4356 31.6596 8.57665 31.5712C8.7177 31.4828 8.88306 31.4386 9.06788 31.4386C9.3597 31.4386 9.58343 31.5319 9.7342 31.7136C9.88498 31.8953 9.95793 32.1556 9.95793 32.4797V34.0266H9.4132V32.519C9.4132 32.4011 9.40347 32.298 9.37916 32.2047C9.35484 32.1163 9.31106 32.0377 9.2527 31.9739C9.18947 31.91 9.11165 31.8806 9.01924 31.8806C8.83929 31.8806 8.68365 31.9542 8.55233 32.0966C8.42101 32.2391 8.35779 32.406 8.35779 32.5877V34.0217H7.81305V32.4748C7.81305 32.3962 7.80819 32.3275 7.7936 32.2636C7.77901 32.1998 7.75955 32.1359 7.73037 32.077C7.70119 32.0181 7.65742 31.969 7.59905 31.9346C7.54069 31.9002 7.4726 31.8806 7.38991 31.8806C7.20996 31.8806 7.05919 31.9444 6.93759 32.0721C6.81114 32.1998 6.75277 32.3422 6.75277 32.5092V34.0266H6.20804H6.19345ZM4.25285 34.0266V32.131C4.25285 32.0623 4.25285 31.9739 4.24312 31.8707C4.23826 31.7676 4.22853 31.6792 4.22367 31.6056L4.21394 31.4975H4.79272V31.856C4.97267 31.5761 5.18667 31.4337 5.42986 31.4337C5.51254 31.4337 5.59522 31.4484 5.68277 31.473V31.9591C5.59036 31.9248 5.48822 31.91 5.39095 31.91C5.21585 31.91 5.06994 31.969 4.96294 32.0917C4.85594 32.2096 4.79758 32.3864 4.79758 32.6074V34.0266H4.24798H4.25285ZM0.391094 34.0266L1.80156 30.4417H2.37547L3.80053 34.0266H3.17311L2.8132 33.1083H1.34924L0.999053 34.0266H0.38623H0.391094ZM1.52919 32.6074H2.61865C2.46788 32.1752 2.28793 31.6645 2.07879 31.0752C1.8356 31.7578 1.65078 32.2685 1.52919 32.6074Z" fill="#4B4B50"/>
</g>
<defs>
<clipPath id="clip0_455_6275">
<rect width="69" height="36" fill="white"/>
</clipPath>
</defs>
</svg>
